<?xml version="1.0" standalone="no"?>
<!DOCTYPE svg PUBLIC "-//W3C//DTD SVG 20010904//EN"
 "http://www.w3.org/TR/2001/REC-SVG-20010904/DTD/svg10.dtd">
<svg version="1.0" xmlns="http://www.w3.org/2000/svg"
 width="17.000000pt" height="17.000000pt" viewBox="0 0 96.000000 96.000000"
 preserveAspectRatio="xMidYMid meet">

<g transform="translate(0.000000,96.000000) scale(0.100000,-0.100000)"
fill="#CD853F" stroke="none">
<path d="M385 826 c-107 -34 -186 -102 -232 -201 -24 -51 -28 -73 -28 -145 0
-127 45 -215 149 -291 47 -35 62 -36 68 -5 4 19 -5 31 -47 64 -75 57 -110 131
-110 232 0 174 121 294 295 295 62 0 85 -5 132 -28 107 -53 162 -143 163 -267
0 -100 -34 -173 -109 -232 -38 -30 -50 -46 -48 -62 5 -28 7 -29 33 -21 43 14
125 103 155 168 25 53 29 75 29 147 0 72 -4 94 -28 145 -30 65 -81 124 -138
160 -78 50 -199 68 -284 41z"/>
<path d="M395 671 c-98 -45 -144 -146 -115 -252 11 -38 77 -122 90 -114 12 7
19 55 9 61 -18 11 -49 84 -49 114 0 50 35 107 80 130 21 11 53 20 70 20 76 0
150 -74 150 -150 0 -30 -31 -103 -49 -114 -10 -6 -3 -54 9 -61 13 -8 79 76 90
114 48 174 -125 326 -285 252z"/>
<path d="M440 520 c-24 -24 -25 -49 -5 -76 11 -15 14 -53 15 -171 l0 -153 30
0 30 0 0 153 c1 118 4 156 15 171 8 11 15 28 15 38 0 24 -35 58 -60 58 -11 0
-29 -9 -40 -20z"/>
</g>
</svg>
