<?xml version="1.0" standalone="no"?>
<!DOCTYPE svg PUBLIC "-//W3C//DTD SVG 20010904//EN"
 "http://www.w3.org/TR/2001/REC-SVG-20010904/DTD/svg10.dtd">
<svg version="1.0" xmlns="http://www.w3.org/2000/svg"
 width="75.000000pt" height="75.000000pt" viewBox="0 0 75.000000 75.000000"
 preserveAspectRatio="xMidYMid meet">

<g transform="translate(0.000000,75.000000) scale(0.100000,-0.100000)"
fill="#4cfa46" stroke="none">
<path d="M165 578 c-12 -63 -1 -416 13 -430 19 -19 375 -19 394 0 14 14 25
367 13 430 l-6 32 -204 0 -204 0 -6 -32z m403 -200 l-3 -223 -190 0 -190 0 -3
223 -2 222 195 0 195 0 -2 -222z"/>
<path d="M300 517 c0 -45 31 -77 75 -77 44 0 75 32 75 77 0 20 -4 32 -10 28
-5 -3 -10 -19 -10 -34 0 -32 -27 -61 -57 -61 -27 0 -53 31 -53 63 0 14 -4 29
-10 32 -6 4 -10 -8 -10 -28z"/>
</g>
</svg>
